<svg width="61" height="61" viewBox="0 0 61 61" fill="none" xmlns="http://www.w3.org/2000/svg">
<path d="M30.5 5.40691C38.5151 5.40691 39.456 5.44264 42.6239 5.58555C45.5536 5.71655 47.1376 6.20484 48.1975 6.62168C49.6029 7.16951 50.6033 7.81262 51.6513 8.86066C52.6993 9.90869 53.3543 10.9091 53.8903 12.3144C54.2952 13.3744 54.7954 14.9583 54.9264 17.8881C55.0693 21.056 55.105 21.9968 55.105 30.0119C55.105 38.027 55.0693 38.9678 54.9264 42.1358C54.7954 45.0655 54.3071 46.6495 53.8903 47.7094C53.3424 49.1147 52.6993 50.1151 51.6513 51.1632C50.6033 52.2112 49.6029 52.8662 48.1975 53.4021C47.1376 53.8071 45.5536 54.3073 42.6239 54.4383C39.456 54.5812 38.5151 54.6169 30.5 54.6169C22.4849 54.6169 21.5441 54.5812 18.3762 54.4383C15.4464 54.3073 13.8625 53.819 12.8025 53.4021C11.3972 52.8543 10.3968 52.2112 9.34876 51.1632C8.30072 50.1151 7.6457 49.1147 7.10977 47.7094C6.70485 46.6495 6.20465 45.0655 6.07364 42.1358C5.93073 38.9678 5.895 38.027 5.895 30.0119C5.895 21.9968 5.93073 21.056 6.07364 17.8881C6.20465 14.9583 6.69294 13.3744 7.10977 12.3144C7.65761 10.9091 8.30072 9.90869 9.34876 8.86066C10.3968 7.81262 11.3972 7.1576 12.8025 6.62168C13.8625 6.21675 15.4464 5.71655 18.3762 5.58555C21.5441 5.43073 22.4968 5.40691 30.5 5.40691ZM30.5 0C22.3539 0 21.3297 0.0357285 18.1261 0.178642C14.9343 0.321556 12.7549 0.833664 10.8494 1.57205C8.87238 2.33426 7.20505 3.37038 5.53772 5.03771C3.87039 6.70504 2.84617 8.38428 2.07205 10.3493C1.33366 12.2549 0.821556 14.4343 0.678642 17.638C0.535728 20.8297 0.5 21.8539 0.5 30C0.5 38.1461 0.535728 39.1703 0.678642 42.374C0.821556 45.5657 1.33366 47.7451 2.07205 49.6626C2.83426 51.6395 3.87039 53.3069 5.53772 54.9742C7.20505 56.6415 8.88428 57.6657 10.8494 58.4399C12.7549 59.1782 14.9343 59.6904 18.138 59.8333C21.3416 59.9762 22.3539 60.0119 30.5119 60.0119C38.6699 60.0119 39.6822 59.9762 42.8859 59.8333C46.0776 59.6904 48.2571 59.1782 50.1745 58.4399C52.1515 57.6777 53.8188 56.6415 55.4861 54.9742C57.1535 53.3069 58.1777 51.6276 58.9518 49.6626C59.6902 47.757 60.2023 45.5776 60.3452 42.374C60.4881 39.1703 60.5239 38.158 60.5239 30C60.5239 21.842 60.4881 20.8297 60.3452 17.626C60.2023 14.4343 59.6902 12.2549 58.9518 10.3374C58.1896 8.36046 57.1535 6.69313 55.4861 5.0258C53.8188 3.35848 52.1396 2.33426 50.1745 1.56014C48.269 0.821755 46.0896 0.309647 42.8859 0.166733C39.6703 0.0357285 38.6461 0 30.5 0Z" fill="url(#paint0_linear_2_62)"/>
<path d="M30.5 14.601C21.9966 14.601 15.0891 21.4966 15.0891 30.0119C15.0891 38.5272 21.9847 45.4228 30.5 45.4228C39.0153 45.4228 45.9109 38.5272 45.9109 30.0119C45.9109 21.4966 39.0153 14.601 30.5 14.601ZM30.5 40.004C24.974 40.004 20.496 35.526 20.496 30C20.496 24.474 24.974 19.996 30.5 19.996C36.026 19.996 40.504 24.474 40.504 30C40.504 35.526 36.026 40.004 30.5 40.004Z" fill="url(#paint1_linear_2_62)"/>
<path d="M46.5183 17.5784C48.5047 17.5784 50.1149 15.9681 50.1149 13.9817C50.1149 11.9954 48.5047 10.3851 46.5183 10.3851C44.5319 10.3851 42.9216 11.9954 42.9216 13.9817C42.9216 15.9681 44.5319 17.5784 46.5183 17.5784Z" fill="url(#paint2_linear_2_62)"/>
<defs>
<linearGradient id="paint0_linear_2_62" x1="5" y1="56" x2="57" y2="5.5" gradientUnits="userSpaceOnUse">
<stop stop-color="#F2D045"/>
<stop offset="0.213542" stop-color="#DB9053"/>
<stop offset="0.5" stop-color="#E6326F"/>
<stop offset="0.744792" stop-color="#8A55C3"/>
<stop offset="1" stop-color="#7340A9"/>
</linearGradient>
<linearGradient id="paint1_linear_2_62" x1="5" y1="56" x2="57" y2="5.5" gradientUnits="userSpaceOnUse">
<stop stop-color="#F2D045"/>
<stop offset="0.213542" stop-color="#DB9053"/>
<stop offset="0.5" stop-color="#E6326F"/>
<stop offset="0.744792" stop-color="#8A55C3"/>
<stop offset="1" stop-color="#7340A9"/>
</linearGradient>
<linearGradient id="paint2_linear_2_62" x1="5" y1="56" x2="57" y2="5.5" gradientUnits="userSpaceOnUse">
<stop stop-color="#F2D045"/>
<stop offset="0.213542" stop-color="#DB9053"/>
<stop offset="0.5" stop-color="#E6326F"/>
<stop offset="0.744792" stop-color="#8A55C3"/>
<stop offset="1" stop-color="#7340A9"/>
</linearGradient>
</defs>
</svg>
