<svg width="16" height="16" viewBox="0 0 16 16" fill="none" xmlns="http://www.w3.org/2000/svg">
<path fill-rule="evenodd" clip-rule="evenodd" d="M0 8C0 3.58172 3.58172 0 8 0C12.4161 0.00514317 15.9949 3.58385 16 8C16 12.4183 12.4183 16 8 16C3.58172 16 0 12.4183 0 8ZM8.05467 11.6593L12.618 5.46667C12.7723 5.27572 12.8091 5.01545 12.7139 4.78918C12.6187 4.56291 12.4069 4.40726 12.1625 4.38403C11.9182 4.36079 11.6808 4.47373 11.5447 4.678L7.39333 10.312L4.676 8.138C4.38844 7.90788 3.96879 7.95444 3.73867 8.242C3.50855 8.52956 3.55511 8.94921 3.84267 9.17933L7.10133 11.7847C7.24379 11.896 7.42501 11.9455 7.60428 11.9219C7.78355 11.8983 7.94584 11.8037 8.05467 11.6593Z" fill="#FFAC12"/>
</svg>
